<svg data-v-423bf9ae="" xmlns="http://www.w3.org/2000/svg" viewBox="0 0 478.1012740089246 204" class="iconAboveSlogan"><!----><!----><!----><g data-v-423bf9ae="" id="533728cb-ef95-40d6-ab1a-3c1af9682ce5" fill="white" transform="matrix(5.424955053999871,0,0,5.424955053999871,-0.3797511105470619,93.88607586238113)"><path d="M4.62 2.31L0.07 12.60L1.40 12.60L2.65 9.66L6.59 9.66L7.84 12.60L9.17 12.60ZM4.62 5.01L6.12 8.54L3.12 8.54ZM11.41 8.68C11.41 8.20 11.54 7.82 11.80 7.52C12.06 7.22 12.43 7.07 12.91 7.07C13.35 7.07 13.66 7.20 13.85 7.46C14.04 7.72 14.14 8.13 14.14 8.68L14.14 12.60L15.26 12.60L15.26 8.68C15.26 8.20 15.39 7.82 15.65 7.52C15.91 7.22 16.28 7.07 16.76 7.07C17.20 7.07 17.51 7.20 17.70 7.46C17.89 7.72 17.99 8.13 17.99 8.68L17.99 12.60L19.11 12.60L19.11 8.54C19.11 7.71 18.93 7.08 18.58 6.66C18.22 6.23 17.71 6.02 17.04 6.02C16.63 6.02 16.24 6.12 15.89 6.33C15.54 6.53 15.25 6.81 15.04 7.17C14.73 6.40 14.11 6.02 13.19 6.02C12.44 6.02 11.85 6.33 11.41 6.96L11.41 6.16L10.29 6.16L10.29 12.60L11.41 12.60ZM25.34 10.08C25.34 10.55 25.19 10.93 24.89 11.23C24.58 11.54 24.19 11.69 23.70 11.69C22.79 11.69 22.33 11.15 22.33 10.08L22.33 6.16L21.21 6.16L21.21 10.22C21.21 11.03 21.41 11.65 21.80 12.09C22.20 12.52 22.74 12.74 23.42 12.74C24.22 12.74 24.86 12.40 25.34 11.73L25.34 12.60L26.46 12.60L26.46 6.16L25.34 6.16ZM28.85 10.35L27.93 10.88C28.02 11.40 28.32 11.84 28.81 12.20C29.31 12.56 29.85 12.74 30.45 12.74C31.18 12.74 31.75 12.58 32.17 12.26C32.59 11.93 32.80 11.44 32.80 10.78C32.80 10.01 32.21 9.37 31.02 8.88C30.71 8.75 30.46 8.64 30.28 8.55C30.09 8.46 29.91 8.34 29.73 8.18C29.55 8.03 29.46 7.87 29.46 7.71C29.46 7.29 29.78 7.08 30.44 7.08C30.72 7.08 30.99 7.15 31.26 7.28C31.52 7.41 31.72 7.60 31.85 7.85L32.75 7.28C32.62 6.93 32.34 6.63 31.88 6.38C31.42 6.14 30.94 6.02 30.42 6.02C29.87 6.02 29.39 6.18 28.97 6.49C28.55 6.80 28.34 7.21 28.34 7.71C28.34 7.97 28.39 8.19 28.49 8.40C28.59 8.61 28.74 8.78 28.95 8.93C29.15 9.08 29.33 9.20 29.51 9.29C29.69 9.38 29.91 9.48 30.18 9.59C30.43 9.68 30.61 9.76 30.74 9.82C30.86 9.88 31.01 9.97 31.17 10.07C31.33 10.18 31.45 10.30 31.53 10.43C31.60 10.56 31.64 10.71 31.64 10.88C31.64 11.42 31.27 11.69 30.52 11.69C30.12 11.69 29.76 11.56 29.45 11.31C29.14 11.06 28.94 10.74 28.85 10.35ZM38.72 8.71L34.89 8.71C34.94 8.19 35.16 7.78 35.54 7.47C35.92 7.16 36.37 7.00 36.90 7.00C37.45 7.00 37.87 7.15 38.18 7.46C38.49 7.77 38.67 8.19 38.72 8.71ZM34.86 9.66L39.93 9.66C39.94 9.59 39.94 9.47 39.94 9.32C39.94 8.32 39.66 7.51 39.11 6.92C38.55 6.32 37.82 6.02 36.90 6.02C35.96 6.02 35.19 6.33 34.60 6.96C34.01 7.59 33.71 8.40 33.71 9.38C33.71 10.35 34.00 11.15 34.58 11.79C35.16 12.42 35.89 12.74 36.76 12.74C37.54 12.74 38.15 12.60 38.61 12.33C39.07 12.06 39.48 11.65 39.83 11.10L38.92 10.53C38.44 11.30 37.77 11.69 36.90 11.69C36.32 11.69 35.84 11.51 35.48 11.16C35.11 10.80 34.91 10.30 34.86 9.66ZM45.75 2.80L45.75 12.60L48.41 12.60C49.38 12.60 50.18 12.34 50.81 11.83C51.43 11.32 51.74 10.62 51.74 9.73C51.74 8.40 51.02 7.57 49.57 7.25C50.65 6.95 51.18 6.29 51.18 5.25C51.18 4.48 50.91 3.88 50.37 3.45C49.82 3.02 49.07 2.80 48.13 2.80ZM46.94 6.72L46.94 3.92L48.13 3.92C49.37 3.92 49.99 4.39 49.99 5.32C49.99 6.25 49.37 6.72 48.13 6.72ZM46.94 7.84L48.41 7.84C49.07 7.84 49.59 8.00 49.97 8.31C50.36 8.62 50.55 9.07 50.55 9.66C50.55 10.25 50.36 10.70 49.97 11.01C49.59 11.32 49.07 11.48 48.41 11.48L46.94 11.48ZM52.93 9.38C52.93 10.35 53.25 11.15 53.89 11.79C54.52 12.42 55.31 12.74 56.27 12.74C57.22 12.74 58.01 12.42 58.65 11.79C59.28 11.15 59.60 10.35 59.60 9.38C59.60 8.41 59.28 7.61 58.65 6.97C58.01 6.34 57.22 6.02 56.27 6.02C55.31 6.02 54.52 6.34 53.89 6.97C53.25 7.61 52.93 8.41 52.93 9.38ZM54.07 9.38C54.07 8.71 54.28 8.15 54.69 7.72C55.11 7.29 55.63 7.07 56.27 7.07C56.90 7.07 57.43 7.29 57.84 7.72C58.26 8.15 58.46 8.71 58.46 9.38C58.46 10.05 58.26 10.61 57.84 11.04C57.43 11.47 56.90 11.69 56.27 11.69C55.63 11.69 55.11 11.47 54.69 11.04C54.28 10.61 54.07 10.05 54.07 9.38ZM65.27 10.08C65.27 10.55 65.12 10.93 64.81 11.23C64.51 11.54 64.12 11.69 63.63 11.69C62.72 11.69 62.26 11.15 62.26 10.08L62.26 6.16L61.14 6.16L61.14 10.22C61.14 11.03 61.34 11.65 61.73 12.09C62.13 12.52 62.67 12.74 63.35 12.74C64.15 12.74 64.79 12.40 65.27 11.73L65.27 12.60L66.39 12.60L66.39 6.16L65.27 6.16ZM68.99 9.38C68.99 8.71 69.20 8.15 69.62 7.72C70.03 7.29 70.56 7.07 71.19 7.07C71.69 7.07 72.16 7.18 72.58 7.40C73.00 7.62 73.28 7.89 73.43 8.20L73.43 6.85C73.21 6.59 72.89 6.39 72.48 6.24C72.07 6.09 71.64 6.02 71.19 6.02C70.24 6.02 69.44 6.34 68.81 6.97C68.18 7.61 67.86 8.41 67.86 9.38C67.86 10.35 68.18 11.15 68.81 11.79C69.44 12.42 70.24 12.74 71.19 12.74C71.65 12.74 72.08 12.67 72.49 12.52C72.90 12.38 73.22 12.18 73.43 11.91L73.43 10.56C73.28 10.87 73.00 11.14 72.58 11.36C72.16 11.58 71.69 11.69 71.19 11.69C70.56 11.69 70.03 11.47 69.62 11.04C69.20 10.61 68.99 10.05 68.99 9.38ZM76.30 8.68C76.30 8.21 76.45 7.83 76.75 7.52C77.06 7.22 77.45 7.07 77.94 7.07C78.85 7.07 79.31 7.61 79.31 8.68L79.31 12.60L80.43 12.60L80.43 8.54C80.43 7.73 80.23 7.10 79.83 6.67C79.44 6.24 78.90 6.02 78.22 6.02C77.42 6.02 76.78 6.36 76.30 7.03L76.30 1.68L75.18 1.68L75.18 12.60L76.30 12.60ZM86.98 8.71L83.15 8.71C83.20 8.19 83.42 7.78 83.80 7.47C84.17 7.16 84.63 7.00 85.16 7.00C85.70 7.00 86.13 7.15 86.44 7.46C86.74 7.77 86.93 8.19 86.98 8.71ZM83.12 9.66L88.19 9.66C88.20 9.59 88.20 9.47 88.20 9.32C88.20 8.32 87.92 7.51 87.37 6.92C86.81 6.32 86.08 6.02 85.16 6.02C84.22 6.02 83.45 6.33 82.86 6.96C82.27 7.59 81.97 8.40 81.97 9.38C81.97 10.35 82.26 11.15 82.84 11.79C83.42 12.42 84.14 12.74 85.02 12.74C85.80 12.74 86.41 12.60 86.87 12.33C87.33 12.06 87.73 11.65 88.09 11.10L87.18 10.53C86.70 11.30 86.03 11.69 85.16 11.69C84.57 11.69 84.10 11.51 83.73 11.16C83.37 10.80 83.16 10.30 83.12 9.66Z"></path></g><!----><g data-v-423bf9ae="" id="35ca8f97-2eff-471c-880f-37b4bfba7c43" transform="matrix(1.3886146472166507,0,0,1.3886146472166507,177.21569930092983,-21.02352703185808)" stroke="none" fill="white"><path d="M43 54.5c-3.9-.7-4.1 5.4-.7 5 5.6-.7 11.3-2.9 13.9-8.3 3.2-6.5.2-14 .6-20.9.1-1.4-1.7-1.9-2.6-1.1-5.2 4.9-13.5 3.3-18.8 8.2-4.2 4-5.6 13.1-.4 16.7-1.3 3.4-1.8 7.2-1.7 10.8.1 2.5 4 2.5 3.9 0-.3-4.8.7-9.5 3.2-13.6 1.2-2 2.6-3.8 4.3-5.4 1.5-1.4 3.8-2.4 4.7-4.3.1-.3 0-.6-.3-.7-4.2-1.6-9.6 5.2-11.6 8.2-.3.5-.6.9-.9 1.4-1-2.1-1.7-4.2-.9-6.8 1.1-3.5 4.2-5.3 7.5-6.3 3.7-1.1 7.5-1.7 10.6-3.7.4 4.3 1.4 8.7.4 12.9-1 5-5.9 8.8-11.2 7.9zM3.5 16.7c-.1-.7-1.1-1-1.3-.2C1 20.9 1 25.9 1 30.4c0 1.9.2 3.8.9 5.6.8 2.3 2.8 4 3.5 6.3s0 5-.2 7.2c-.3 3-.7 5.9-1.1 8.9-.7 4.9-1.5 9.9-1.4 14.9.1 3.1 1.3 5.8 4.6 6.6 3.2.8 6.7-1 7.6-4.2 1-3.4 0-8-.3-11.5-.4-4.8-1.3-9.5-1.5-14.3-.1-2.9 0-5.5 1.3-8.1 1.1-2.3 1.9-4.6 2.4-7 1.1-5.5.9-11.2.4-16.7-.3-3.1-4.7-2.5-4.2.6.9 5.6 1.3 11.2-.1 16.7-.6 2.3-1.7 4.3-2.6 6.5-.8 2-.9 4.3-.9 6.4 0 5 1 10 1.4 14.9.2 2.8 2.2 12.9-2.1 13-4.5.1-1.7-13-1.4-15.7.5-5.2 1.5-10.5 1.3-15.7-.2-5.1-4.6-8-5.1-12.9-.6-5.1.5-10.1 0-15.2z"></path><path d="M7.4 32.9c.2 1.8 2.7 1.8 2.8 0 .1-2.7-.1-5.6-.2-8.3-.1-2.5.1-5.1-.7-7.5-.2-.8-1.4-.8-1.6 0-.6 2.4-.4 5-.4 7.5 0 2.8-.1 5.6.1 8.3zM80.4 79.2c2 1.5 4.8 1.5 6.8-.1 1.9-1.5 1.9-3.5 2-5.7.2-3.3.2-6.7.2-10 .1-9.5-.1-18.9-.2-28.4-.1-6-.6-12-.8-18.1 0-.5-.2-.8-.5-1-.2-.2-.5-.4-.9-.4-7.1.2-10.1 7.2-11.1 13.3-.5 3.1-.6 6.2-.1 9.3.6 3.6 2.3 6.3 3.8 9.5 3.5 7.6-1.1 16-1.2 23.9-.1 2.7-.4 5.9 2 7.7zm-1-41.1c-1.1-6.1-.1-16.3 6.2-19.3.2 10.9 0 21.9.1 32.8.1 6.9.1 13.8-.1 20.7-.1 1.8.3 3.3-1.1 4-3.7 1.7-2.3-7.8-2-9.4.5-3.2 1.4-6.2 1.8-9.4.4-3.5.3-7-1-10.3-1.3-3.1-3.3-5.7-3.9-9.1z"></path><path d="M63.9 28.2c-1.5-5.3-8.6-7.5-13.4-8.1-6.1-.8-12.6.3-18.2 3C21.6 28.2 15.2 40 16.4 51.6c1.2 11.9 9.2 22.3 20.8 25.6 11.2 3.3 24.3-.2 31.7-9.2 8.1-9.8 8.8-25.7 1.3-36-1.8-2.4-5.8 0-4 2.4 5.8 7.7 6.3 18.8 1.8 27.1-4.8 8.8-15.2 13.1-24.9 12-10.1-1-18.4-8.1-21.1-17.8-2.6-9.6.7-20.3 9-26.2 4.6-3.2 10.4-4.8 15.9-4.9 3 0 5.8.5 8.6 1.4 2.6.8 4.9 2.5 7.5 3 .6.1 1.1-.3.9-.8z"></path></g><!----><g data-v-423bf9ae="" id="858f2227-3a4d-49a2-97dc-bbb5292ae5cf" fill="white" transform="matrix(2.608014700563247,0,0,2.608014700563247,60.2617857579732,187.50444697691876)"><path d="M0.28 3.72L0.28 3.72L0.28 3.72Q0.28 3.51 0.41 3.51L0.41 3.51L0.41 3.51Q0.45 3.51 0.59 3.52L0.59 3.52L0.59 3.52Q0.73 3.53 0.97 3.53L0.97 3.53L0.97 3.53Q1.25 3.53 2.08 3.52L2.08 3.52L2.08 3.52Q2.91 3.51 3.01 3.51L3.01 3.51L3.01 3.51Q3.33 3.51 3.82 3.49L3.82 3.49L3.82 3.49Q4.31 3.47 4.55 3.47L4.55 3.47L4.55 3.47Q5.82 3.47 6.68 4.08L6.68 4.08L6.68 4.08Q7.53 4.69 7.53 5.81L7.53 5.81L7.53 5.81Q7.53 6.22 7.38 6.57L7.38 6.57L7.38 6.57Q7.24 6.93 7.04 7.15L7.04 7.15L7.04 7.15Q6.83 7.38 6.63 7.54L6.63 7.54L6.63 7.54Q6.43 7.70 6.28 7.79L6.28 7.79L6.28 7.79Q6.13 7.88 6.13 7.90L6.13 7.90L6.13 7.90Q6.13 7.94 6.37 8.00L6.37 8.00L6.37 8.00Q6.61 8.06 6.94 8.21L6.94 8.21L6.94 8.21Q7.28 8.36 7.61 8.61L7.61 8.61L7.61 8.61Q7.94 8.86 8.18 9.36L8.18 9.36L8.18 9.36Q8.41 9.86 8.41 10.53L8.41 10.53L8.41 10.53Q8.41 11.13 8.06 11.82L8.06 11.82L8.06 11.82Q7.71 12.50 7.24 12.82L7.24 12.82L7.24 12.82Q6.62 13.26 6.09 13.40L6.09 13.40L6.09 13.40Q5.56 13.55 4.80 13.55L4.80 13.55L4.80 13.55Q4.24 13.55 3.32 13.47L3.32 13.47L3.32 13.47Q2.39 13.40 2.30 13.40L2.30 13.40L2.30 13.40Q2.14 13.40 1.74 13.43L1.74 13.43L1.74 13.43Q1.34 13.45 1.09 13.45L1.09 13.45L0.90 13.45L0.90 13.45Q0.60 13.45 0.60 13.24L0.60 13.24L0.60 13.24Q0.60 13.05 0.76 13.05L0.76 13.05L0.76 13.05Q0.84 13.05 0.94 13.04L0.94 13.04L0.94 13.04Q1.04 13.03 1.08 13.03L1.08 13.03L1.08 13.03Q1.20 13.03 1.32 12.94L1.32 12.94L1.32 12.94Q1.44 12.85 1.57 12.54L1.57 12.54L1.57 12.54Q1.69 12.22 1.71 11.73L1.71 11.73L1.71 11.73Q1.75 10.82 1.75 7.36L1.75 7.36L1.75 4.98L1.75 4.98Q1.75 4.89 1.72 4.75L1.72 4.75L1.72 4.75Q1.68 4.62 1.57 4.40L1.57 4.40L1.57 4.40Q1.47 4.19 1.20 4.04L1.20 4.04L1.20 4.04Q0.92 3.89 0.52 3.89L0.52 3.89L0.52 3.89Q0.28 3.89 0.28 3.72ZM2.81 12.15L2.81 12.15L2.81 12.15Q2.81 12.99 4.19 12.99L4.19 12.99L4.51 12.99L4.51 12.99Q5.26 12.99 5.71 12.92L5.71 12.92L5.71 12.92Q6.37 12.81 6.80 12.24L6.80 12.24L6.80 12.24Q7.22 11.66 7.22 10.86L7.22 10.86L7.22 10.86Q7.22 10.18 6.97 9.68L6.97 9.68L6.97 9.68Q6.72 9.18 6.40 8.93L6.40 8.93L6.40 8.93Q6.08 8.68 5.63 8.54L5.63 8.54L5.63 8.54Q5.19 8.40 4.95 8.37L4.95 8.37L4.95 8.37Q4.70 8.34 4.48 8.34L4.48 8.34L4.48 8.34Q4.03 8.34 3.75 8.34L3.75 8.34L3.75 8.34Q3.46 8.33 3.38 8.33L3.38 8.33L3.38 8.33Q3.30 8.33 3.25 8.32L3.25 8.32L3.25 8.32Q3.21 8.32 3.18 8.32L3.18 8.32L3.18 8.32Q3.05 8.32 3.00 8.35L3.00 8.35L3.00 8.35Q2.94 8.39 2.89 8.62L2.89 8.62L2.89 8.62Q2.84 8.85 2.83 9.28L2.83 9.28L2.83 9.28Q2.83 9.72 2.83 10.58L2.83 10.58L2.83 10.70L2.83 10.70Q2.83 11.21 2.83 11.54L2.83 11.54L2.83 11.54Q2.83 11.86 2.82 11.99L2.82 11.99L2.82 11.99Q2.81 12.12 2.81 12.15ZM2.90 5.40L2.90 5.81L2.90 5.81Q2.90 6.51 2.91 6.90L2.91 6.90L2.91 6.90Q2.91 7.29 2.94 7.50L2.94 7.50L2.94 7.50Q2.97 7.71 3.00 7.77L3.00 7.77L3.00 7.77Q3.02 7.83 3.08 7.83L3.08 7.83L3.08 7.83Q3.47 7.87 3.79 7.87L3.79 7.87L4.69 7.87L4.69 7.87Q5.57 7.87 6.01 7.41L6.01 7.41L6.01 7.41Q6.45 6.94 6.45 6.22L6.45 6.22L6.45 6.22Q6.45 5.43 5.72 4.70L5.72 4.70L5.72 4.70Q4.98 3.96 3.63 3.96L3.63 3.96L3.63 3.96Q3.19 3.96 3.04 4.22L3.04 4.22L3.04 4.22Q2.90 4.48 2.90 5.40L2.90 5.40ZM16.49 12.25L16.49 12.25L16.49 12.25Q16.49 11.75 16.70 11.40L16.70 11.40L16.70 11.40Q16.91 11.06 17.34 10.87L17.34 10.87L17.34 10.87Q17.77 10.68 18.23 10.57L18.23 10.57L18.23 10.57Q18.69 10.46 19.35 10.35L19.35 10.35L19.35 10.35Q19.43 10.33 19.47 10.32L19.47 10.32L19.47 10.32Q19.52 10.32 19.59 10.31L19.59 10.31L19.59 10.31Q19.66 10.30 19.71 10.29L19.71 10.29L19.71 10.29Q19.81 10.28 19.84 10.26L19.84 10.26L19.84 10.26Q19.88 10.25 19.91 10.20L19.91 10.20L19.91 10.20Q19.95 10.15 19.95 10.07L19.95 10.07L19.95 10.07Q19.95 9.93 19.96 9.68L19.96 9.68L19.96 9.68Q19.98 9.44 19.98 9.34L19.98 9.34L19.98 9.34Q19.98 8.54 19.52 8.18L19.52 8.18L19.52 8.18Q19.05 7.83 18.62 7.83L18.62 7.83L18.62 7.83Q17.61 7.83 17.61 8.67L17.61 8.67L17.61 8.67Q17.61 8.78 17.64 8.95L17.64 8.95L17.64 8.95Q17.67 9.11 17.67 9.17L17.67 9.17L17.67 9.17Q17.67 9.45 17.42 9.45L17.42 9.45L17.42 9.45Q17.33 9.45 17.21 9.43L17.21 9.43L17.21 9.43Q17.08 9.41 16.92 9.36L16.92 9.36L16.92 9.36Q16.76 9.31 16.65 9.19L16.65 9.19L16.65 9.19Q16.55 9.07 16.55 8.90L16.55 8.90L16.55 8.90Q16.55 8.36 17.28 7.86L17.28 7.86L17.28 7.86Q18.02 7.36 18.90 7.36L18.90 7.36L18.90 7.36Q19.50 7.36 19.92 7.50L19.92 7.50L19.92 7.50Q20.34 7.64 20.55 7.82L20.55 7.82L20.55 7.82Q20.75 7.99 20.86 8.28L20.86 8.28L20.86 8.28Q20.97 8.57 20.99 8.73L20.99 8.73L20.99 8.73Q21 8.89 21 9.13L21 9.13L21 9.13Q21 10.14 20.96 10.72L20.96 10.72L20.96 10.72Q20.93 11.30 20.93 11.73L20.93 11.73L20.93 11.73Q20.93 12.25 21.04 12.55L21.04 12.55L21.04 12.55Q21.15 12.85 21.31 12.94L21.31 12.94L21.31 12.94Q21.46 13.02 21.62 13.03L21.62 13.03L21.62 13.03Q21.77 13.05 21.88 13.09L21.88 13.09L21.88 13.09Q21.99 13.13 21.99 13.26L21.99 13.26L21.99 13.26Q21.99 13.55 21.11 13.55L21.11 13.55L21.11 13.55Q20.75 13.55 20.49 13.36L20.49 13.36L20.49 13.36Q20.23 13.16 20.12 12.97L20.12 12.97L20.12 12.97Q20.01 12.78 19.99 12.78L19.99 12.78L19.99 12.78Q19.98 12.78 19.88 12.87L19.88 12.87L19.88 12.87Q19.78 12.96 19.61 13.09L19.61 13.09L19.61 13.09Q19.43 13.22 19.21 13.34L19.21 13.34L19.21 13.34Q19.00 13.47 18.71 13.56L18.71 13.56L18.71 13.56Q18.42 13.65 18.14 13.65L18.14 13.65L18.14 13.65Q17.25 13.65 16.84 13.23L16.84 13.23L16.84 13.23Q16.49 12.88 16.49 12.25ZM17.58 12.04L17.58 12.04L17.58 12.04Q17.58 12.52 17.86 12.80L17.86 12.80L17.86 12.80Q18.14 13.09 18.66 13.09L18.66 13.09L18.66 13.09Q19.03 13.09 19.29 12.98L19.29 12.98L19.29 12.98Q19.54 12.87 19.67 12.73L19.67 12.73L19.67 12.73Q19.80 12.59 19.87 12.36L19.87 12.36L19.87 12.36Q19.94 12.12 19.94 12.00L19.94 12.00L19.94 12.00Q19.95 11.87 19.95 11.66L19.95 11.66L19.95 10.65L19.95 10.65Q19.95 10.53 19.85 10.53L19.85 10.53L19.85 10.53Q19.82 10.53 19.78 10.54L19.78 10.54L19.78 10.54Q19.74 10.56 19.71 10.56L19.71 10.56L19.71 10.56Q19.39 10.61 19.31 10.63L19.31 10.63L19.31 10.63Q19.22 10.64 18.91 10.71L18.91 10.71L18.91 10.71Q18.61 10.78 18.49 10.84L18.49 10.84L18.49 10.84Q18.37 10.89 18.15 11.01L18.15 11.01L18.15 11.01Q17.93 11.13 17.84 11.26L17.84 11.26L17.84 11.26Q17.75 11.40 17.67 11.60L17.67 11.60L17.67 11.60Q17.58 11.80 17.58 12.04ZM29.39 8.12L29.39 8.12L29.39 8.12Q29.39 7.97 29.57 7.89L29.57 7.89L29.57 7.89Q29.76 7.81 30.27 7.65L30.27 7.65L30.27 7.65Q30.79 7.49 31.23 7.28L31.23 7.28L31.23 7.28Q31.37 7.22 31.43 7.22L31.43 7.22L31.43 7.22Q31.61 7.22 31.61 7.50L31.61 7.50L31.61 7.50Q31.61 7.56 31.61 7.69L31.61 7.69L31.61 7.69Q31.60 7.81 31.60 7.88L31.60 7.88L31.60 7.88Q31.60 8.18 31.61 8.30L31.61 8.30L31.61 8.30Q31.63 8.43 31.65 8.46L31.65 8.46L31.65 8.46Q31.67 8.48 31.71 8.48L31.71 8.48L31.71 8.48Q31.74 8.48 31.92 8.20L31.92 8.20L31.92 8.20Q32.10 7.92 32.44 7.64L32.44 7.64L32.44 7.64Q32.77 7.35 33.18 7.35L33.18 7.35L33.18 7.35Q33.43 7.35 33.84 7.62L33.84 7.62L33.84 7.62Q34.13 7.81 34.13 8.02L34.13 8.02L34.13 8.02Q34.13 8.27 34.02 8.47L34.02 8.47L34.02 8.47Q33.91 8.67 33.80 8.74L33.80 8.74L33.80 8.74Q33.70 8.81 33.66 8.81L33.66 8.81L33.66 8.81Q33.54 8.81 33.26 8.64L33.26 8.64L33.26 8.64Q32.97 8.47 32.59 8.47L32.59 8.47L32.59 8.47Q32.21 8.47 31.88 8.78L31.88 8.78L31.88 8.78Q31.56 9.09 31.56 9.34L31.56 9.34L31.56 10.79L31.56 10.79Q31.56 11.30 31.56 11.61L31.56 11.61L31.56 11.61Q31.57 11.93 31.57 12.00L31.57 12.00L31.57 12.00Q31.57 12.08 31.58 12.14L31.58 12.14L31.58 12.14Q31.58 12.19 31.58 12.26L31.58 12.26L31.58 12.26Q31.58 12.56 31.78 12.77L31.78 12.77L31.78 12.77Q31.98 12.98 32.24 13.02L32.24 13.02L32.24 13.02Q32.33 13.03 32.45 13.05L32.45 13.05L32.45 13.05Q32.58 13.06 32.65 13.07L32.65 13.07L32.65 13.07Q32.72 13.08 32.80 13.10L32.80 13.10L32.80 13.10Q32.89 13.12 32.92 13.16L32.92 13.16L32.92 13.16Q32.96 13.20 32.96 13.26L32.96 13.26L32.96 13.26Q32.96 13.48 32.79 13.48L32.79 13.48L32.79 13.48Q32.55 13.48 32.14 13.45L32.14 13.45L32.14 13.45Q31.74 13.41 31.60 13.41L31.60 13.41L31.60 13.41Q31.15 13.41 30.67 13.45L30.67 13.45L30.67 13.45Q30.20 13.48 30.14 13.48L30.14 13.48L30.14 13.48Q30.00 13.48 29.93 13.45L29.93 13.45L29.93 13.45Q29.86 13.43 29.85 13.40L29.85 13.40L29.85 13.40Q29.83 13.37 29.83 13.31L29.83 13.31L29.83 13.31Q29.83 13.13 30.02 13.08L30.02 13.08L30.02 13.08Q30.38 12.99 30.46 12.72L30.46 12.72L30.46 12.72Q30.53 12.45 30.53 11.55L30.53 11.55L30.53 11.55Q30.53 10.64 30.53 10.05L30.53 10.05L30.53 10.05Q30.52 9.46 30.52 9.30L30.52 9.30L30.52 9.30Q30.52 9.14 30.51 9.04L30.51 9.04L30.51 9.04Q30.51 8.95 30.51 8.88L30.51 8.88L30.51 8.88Q30.51 8.72 30.46 8.62L30.46 8.62L30.46 8.62Q30.42 8.53 30.26 8.44L30.26 8.44L30.26 8.44Q30.10 8.36 29.81 8.36L29.81 8.36L29.81 8.36Q29.79 8.36 29.74 8.35L29.74 8.35L29.74 8.35Q29.68 8.34 29.65 8.34L29.65 8.34L29.65 8.34Q29.39 8.34 29.39 8.12ZM52.14 10.05L52.14 10.05L52.14 10.05Q52.14 9.58 52.30 9.06L52.30 9.06L52.30 9.06Q52.46 8.55 52.70 8.25L52.70 8.25L52.70 8.25Q53.03 7.84 53.46 7.62L53.46 7.62L53.46 7.62Q53.89 7.39 54.15 7.34L54.15 7.34L54.15 7.34Q54.40 7.28 54.40 7.25L54.40 7.25L54.40 7.25Q54.40 7.21 54.24 7.01L54.24 7.01L54.24 7.01Q54.07 6.80 53.90 6.39L53.90 6.39L53.90 6.39Q53.73 5.98 53.73 5.45L53.73 5.45L53.73 5.45Q53.73 4.52 54.54 4.05L54.54 4.05L54.54 4.05Q55.36 3.58 56.36 3.58L56.36 3.58L56.36 3.58Q56.85 3.58 57.29 3.74L57.29 3.74L57.29 3.74Q57.72 3.91 57.78 3.91L57.78 3.91L57.78 3.91Q57.83 3.91 57.93 3.88L57.93 3.88L57.93 3.88Q58.02 3.86 58.09 3.86L58.09 3.86L58.09 3.86Q58.31 3.86 58.31 4.19L58.31 4.19L58.31 4.19Q58.31 4.20 58.32 4.38L58.32 4.38L58.32 4.38Q58.34 4.55 58.35 4.77L58.35 4.77L58.35 4.77Q58.37 5.00 58.37 5.14L58.37 5.14L58.37 5.14Q58.37 5.54 58.34 5.63L58.34 5.63L58.34 5.63Q58.32 5.71 58.21 5.71L58.21 5.71L58.21 5.71Q58.13 5.71 57.92 5.46L57.92 5.46L57.92 5.46Q57.71 5.21 57.47 4.91L57.47 4.91L57.47 4.91Q57.23 4.61 56.83 4.35L56.83 4.35L56.83 4.35Q56.43 4.10 56.01 4.10L56.01 4.10L56.01 4.10Q55.36 4.10 55.03 4.44L55.03 4.44L55.03 4.44Q54.71 4.79 54.71 5.18L54.71 5.18L54.71 5.18Q54.71 5.53 55.10 6.08L55.10 6.08L55.10 6.08Q55.48 6.64 55.88 7.06L55.88 7.06L55.88 7.06Q56.28 7.48 57.01 8.20L57.01 8.20L57.01 8.20Q58.06 9.25 59.04 10.09L59.04 10.09L59.04 10.09Q60.02 10.93 60.14 10.93L60.14 10.93L60.14 10.93Q60.23 10.93 60.31 10.81L60.31 10.81L60.31 10.81Q60.40 10.70 60.45 10.42L60.45 10.42L60.45 10.42Q60.51 10.14 60.51 9.76L60.51 9.76L60.51 9.76Q60.51 9.24 60.36 8.93L60.36 8.93L60.36 8.93Q60.21 8.61 60.10 8.53L60.10 8.53L60.10 8.53Q59.99 8.46 59.71 8.32L59.71 8.32L59.71 8.32Q59.61 8.27 59.47 8.26L59.47 8.26L59.47 8.26Q59.32 8.25 59.25 8.21L59.25 8.21L59.25 8.21Q59.18 8.18 59.18 8.06L59.18 8.06L59.18 8.06Q59.18 7.97 59.24 7.94L59.24 7.94L59.24 7.94Q59.30 7.91 59.53 7.91L59.53 7.91L59.53 7.91Q59.82 7.91 60.18 7.92L60.18 7.92L60.18 7.92Q60.54 7.94 61.61 7.94L61.61 7.94L61.61 7.94Q61.88 7.94 61.88 8.12L61.88 8.12L61.88 8.12Q61.88 8.22 61.80 8.27L61.80 8.27L61.80 8.27Q61.73 8.32 61.62 8.34L61.62 8.34L61.62 8.34Q61.52 8.37 61.43 8.51L61.43 8.51L61.43 8.51Q61.33 8.65 61.32 8.90L61.32 8.90L61.32 8.90Q61.31 9.07 61.29 9.28L61.29 9.28L61.29 9.28Q61.26 9.49 61.24 9.71L61.24 9.71L61.24 9.71Q61.21 9.93 61.19 10.01L61.19 10.01L61.19 10.01Q61.15 10.28 61.03 10.58L61.03 10.58L61.03 10.58Q60.90 10.89 60.80 11.10L60.80 11.10L60.80 11.10Q60.69 11.31 60.69 11.35L60.69 11.35L60.69 11.35Q60.69 11.48 61.52 12.00L61.52 12.00L61.52 12.00Q62.36 12.53 63.21 12.95L63.21 12.95L63.21 12.95Q63.49 13.09 63.81 13.09L63.81 13.09L63.81 13.09Q63.91 13.09 64.08 13.07L64.08 13.07L64.08 13.07Q64.25 13.05 64.32 13.05L64.32 13.05L64.32 13.05Q64.50 13.05 64.50 13.17L64.50 13.17L64.50 13.17Q64.50 13.40 64.10 13.55L64.10 13.55L64.10 13.55Q63.70 13.71 63.14 13.71L63.14 13.71L63.14 13.71Q62.59 13.71 62.09 13.56L62.09 13.56L62.09 13.56Q61.59 13.41 61.24 13.21L61.24 13.21L61.24 13.21Q60.89 13.01 60.62 12.80L60.62 12.80L60.62 12.80Q60.35 12.59 60.19 12.44L60.19 12.44L60.19 12.44Q60.03 12.29 60.00 12.29L60.00 12.29L60.00 12.29Q59.95 12.29 59.79 12.44L59.79 12.44L59.79 12.44Q59.63 12.59 59.36 12.80L59.36 12.80L59.36 12.80Q59.09 13.02 58.72 13.24L58.72 13.24L58.72 13.24Q58.34 13.45 57.71 13.60L57.71 13.60L57.71 13.60Q57.08 13.75 56.32 13.75L56.32 13.75L56.32 13.75Q55.87 13.75 55.43 13.68L55.43 13.68L55.43 13.68Q54.98 13.62 54.36 13.40L54.36 13.40L54.36 13.40Q53.73 13.17 53.26 12.80L53.26 12.80L53.26 12.80Q52.79 12.42 52.47 11.70L52.47 11.70L52.47 11.70Q52.14 10.99 52.14 10.05ZM53.06 9.58L53.06 9.58L53.06 9.58Q53.06 10.07 53.30 10.60L53.30 10.60L53.30 10.60Q53.54 11.13 53.99 11.64L53.99 11.64L53.99 11.64Q54.45 12.15 55.26 12.48L55.26 12.48L55.26 12.48Q56.07 12.81 57.08 12.81L57.08 12.81L57.08 12.81Q57.68 12.81 58.26 12.61L58.26 12.61L58.26 12.61Q58.84 12.40 59.14 12.20L59.14 12.20L59.14 12.20Q59.43 12.00 59.43 11.91L59.43 11.91L59.43 11.91Q59.43 11.86 59.07 11.58L59.07 11.58L59.07 11.58Q58.70 11.31 57.86 10.60L57.86 10.60L57.86 10.60Q57.02 9.88 56.15 9.02L56.15 9.02L56.15 9.02Q55.96 8.82 55.77 8.63L55.77 8.63L55.77 8.63Q55.58 8.44 55.45 8.32L55.45 8.32L55.45 8.32Q55.33 8.19 55.21 8.07L55.21 8.07L55.21 8.07Q55.09 7.95 55.02 7.88L55.02 7.88L55.02 7.88Q54.95 7.81 54.89 7.74L54.89 7.74L54.89 7.74Q54.82 7.67 54.78 7.64L54.78 7.64L54.78 7.64Q54.74 7.62 54.71 7.59L54.71 7.59L54.71 7.59Q54.67 7.56 54.64 7.55L54.64 7.55L54.64 7.55Q54.61 7.55 54.59 7.55L54.59 7.55L54.59 7.55Q54.12 7.55 53.59 8.13L53.59 8.13L53.59 8.13Q53.06 8.72 53.06 9.58ZM82.17 8.83L82.17 8.83L82.17 8.83Q82.17 7.31 82.77 6.09L82.77 6.09L82.77 6.09Q83.38 4.87 84.64 4.12L84.64 4.12L84.64 4.12Q85.90 3.37 87.64 3.37L87.64 3.37L87.64 3.37Q88.31 3.37 88.90 3.48L88.90 3.48L88.90 3.48Q89.49 3.58 89.87 3.72L89.87 3.72L89.87 3.72Q90.24 3.86 90.52 4.01L90.52 4.01L90.52 4.01Q90.80 4.16 90.95 4.26L90.95 4.26L90.95 4.26Q91.10 4.37 91.13 4.37L91.13 4.37L91.13 4.37Q91.17 4.37 91.31 4.26L91.31 4.26L91.31 4.26Q91.46 4.16 91.52 4.16L91.52 4.16L91.52 4.16Q91.73 4.16 91.73 4.44L91.73 4.44L91.73 4.44Q91.74 4.84 91.79 5.29L91.79 5.29L91.79 5.29Q91.84 5.74 91.88 6.03L91.88 6.03L91.88 6.03Q91.92 6.33 91.92 6.38L91.92 6.38L91.92 6.38Q91.92 6.62 91.76 6.62L91.76 6.62L91.76 6.62Q91.59 6.62 91.52 6.45L91.52 6.45L91.52 6.45Q91.03 5.39 89.88 4.65L89.88 4.65L89.88 4.65Q88.73 3.92 87.51 3.92L87.51 3.92L87.51 3.92Q85.76 3.92 84.62 5.02L84.62 5.02L84.62 5.02Q83.48 6.12 83.48 8.06L83.48 8.06L83.48 8.06Q83.48 9.35 83.96 10.49L83.96 10.49L83.96 10.49Q84.43 11.62 85.41 12.36L85.41 12.36L85.41 12.36Q86.38 13.10 87.64 13.10L87.64 13.10L87.64 13.10Q88.72 13.10 89.59 12.61L89.59 12.61L89.59 12.61Q90.47 12.12 90.57 11.49L90.57 11.49L90.57 11.49Q90.61 11.16 90.61 9.73L90.61 9.73L90.61 9.73Q90.61 9.18 90.37 8.95L90.37 8.95L90.37 8.95Q90.20 8.78 89.75 8.72L89.75 8.72L89.75 8.72Q89.33 8.68 89.26 8.55L89.26 8.55L89.26 8.55Q89.24 8.50 89.24 8.41L89.24 8.41L89.24 8.41Q89.24 8.26 89.49 8.26L89.49 8.26L89.49 8.26Q89.67 8.26 90.27 8.29L90.27 8.29L90.27 8.29Q90.87 8.33 91.04 8.33L91.04 8.33L91.04 8.33Q91.32 8.33 91.64 8.32L91.64 8.32L91.64 8.32Q91.97 8.32 92.16 8.32L92.16 8.32L92.37 8.32L92.37 8.32Q92.60 8.32 92.60 8.44L92.60 8.44L92.60 8.44Q92.60 8.54 92.24 8.69L92.24 8.69L92.24 8.69Q91.88 8.85 91.84 9.09L91.84 9.09L91.84 9.09Q91.74 9.69 91.74 10.65L91.74 10.65L91.74 10.65Q91.74 11.07 91.76 11.40L91.76 11.40L91.76 11.40Q91.77 11.72 91.78 11.85L91.78 11.85L91.78 11.85Q91.78 11.98 91.80 12.08L91.80 12.08L91.80 12.08Q91.81 12.18 91.81 12.22L91.81 12.22L91.81 12.22Q91.81 12.29 91.71 12.33L91.71 12.33L91.71 12.33Q91.60 12.36 91.36 12.42L91.36 12.42L91.36 12.42Q91.13 12.49 90.93 12.60L90.93 12.60L90.83 12.66L90.83 12.66Q90.73 12.73 90.64 12.78L90.64 12.78L90.64 12.78Q90.54 12.84 90.38 12.92L90.38 12.92L90.38 12.92Q90.22 13.01 90.05 13.09L90.05 13.09L90.05 13.09Q89.88 13.17 89.67 13.26L89.67 13.26L89.67 13.26Q89.46 13.36 89.24 13.43L89.24 13.43L89.24 13.43Q89.01 13.50 88.77 13.55L88.77 13.55L88.77 13.55Q88.54 13.61 88.28 13.64L88.28 13.64L88.28 13.64Q88.02 13.68 87.77 13.68L87.77 13.68L87.77 13.68Q86.24 13.68 85.11 13.26L85.11 13.26L85.11 13.26Q83.99 12.85 83.37 12.14L83.37 12.14L83.37 12.14Q82.75 11.44 82.46 10.61L82.46 10.61L82.46 10.61Q82.17 9.79 82.17 8.83ZM100.31 8.12L100.31 8.12L100.31 8.12Q100.31 7.97 100.50 7.89L100.50 7.89L100.50 7.89Q100.69 7.81 101.20 7.65L101.20 7.65L101.20 7.65Q101.71 7.49 102.16 7.28L102.16 7.28L102.16 7.28Q102.30 7.22 102.35 7.22L102.35 7.22L102.35 7.22Q102.54 7.22 102.54 7.50L102.54 7.50L102.54 7.50Q102.54 7.56 102.53 7.69L102.53 7.69L102.53 7.69Q102.52 7.81 102.52 7.88L102.52 7.88L102.52 7.88Q102.52 8.18 102.54 8.30L102.54 8.30L102.54 8.30Q102.55 8.43 102.57 8.46L102.57 8.46L102.57 8.46Q102.59 8.48 102.63 8.48L102.63 8.48L102.63 8.48Q102.66 8.48 102.84 8.20L102.84 8.20L102.84 8.20Q103.03 7.92 103.36 7.64L103.36 7.64L103.36 7.64Q103.70 7.35 104.10 7.35L104.10 7.35L104.10 7.35Q104.36 7.35 104.76 7.62L104.76 7.62L104.76 7.62Q105.06 7.81 105.06 8.02L105.06 8.02L105.06 8.02Q105.06 8.27 104.94 8.47L104.94 8.47L104.94 8.47Q104.83 8.67 104.73 8.74L104.73 8.74L104.73 8.74Q104.62 8.81 104.58 8.81L104.58 8.81L104.58 8.81Q104.47 8.81 104.18 8.64L104.18 8.64L104.18 8.64Q103.89 8.47 103.52 8.47L103.52 8.47L103.52 8.47Q103.14 8.47 102.81 8.78L102.81 8.78L102.81 8.78Q102.48 9.09 102.48 9.34L102.48 9.34L102.48 10.79L102.48 10.79Q102.48 11.30 102.49 11.61L102.49 11.61L102.49 11.61Q102.49 11.93 102.49 12.00L102.49 12.00L102.49 12.00Q102.49 12.08 102.50 12.14L102.50 12.14L102.50 12.14Q102.51 12.19 102.51 12.26L102.51 12.26L102.51 12.26Q102.51 12.56 102.70 12.77L102.70 12.77L102.70 12.77Q102.90 12.98 103.17 13.02L103.17 13.02L103.17 13.02Q103.25 13.03 103.38 13.05L103.38 13.05L103.38 13.05Q103.50 13.06 103.57 13.07L103.57 13.07L103.57 13.07Q103.64 13.08 103.73 13.10L103.73 13.10L103.73 13.10Q103.81 13.12 103.84 13.16L103.84 13.16L103.84 13.16Q103.88 13.20 103.88 13.26L103.88 13.26L103.88 13.26Q103.88 13.48 103.71 13.48L103.71 13.48L103.71 13.48Q103.47 13.48 103.07 13.45L103.07 13.45L103.07 13.45Q102.66 13.41 102.52 13.41L102.52 13.41L102.52 13.41Q102.07 13.41 101.60 13.45L101.60 13.45L101.60 13.45Q101.12 13.48 101.07 13.48L101.07 13.48L101.07 13.48Q100.93 13.48 100.86 13.45L100.86 13.45L100.86 13.45Q100.79 13.43 100.77 13.40L100.77 13.40L100.77 13.40Q100.76 13.37 100.76 13.31L100.76 13.31L100.76 13.31Q100.76 13.13 100.94 13.08L100.94 13.08L100.94 13.08Q101.30 12.99 101.38 12.72L101.38 12.72L101.38 12.72Q101.46 12.45 101.46 11.55L101.46 11.55L101.46 11.55Q101.46 10.64 101.45 10.05L101.45 10.05L101.45 10.05Q101.44 9.46 101.44 9.30L101.44 9.30L101.44 9.30Q101.44 9.14 101.44 9.04L101.44 9.04L101.44 9.04Q101.43 8.95 101.43 8.88L101.43 8.88L101.43 8.88Q101.43 8.72 101.39 8.62L101.39 8.62L101.39 8.62Q101.35 8.53 101.19 8.44L101.19 8.44L101.19 8.44Q101.02 8.36 100.73 8.36L100.73 8.36L100.73 8.36Q100.72 8.36 100.66 8.35L100.66 8.35L100.66 8.35Q100.60 8.34 100.58 8.34L100.58 8.34L100.58 8.34Q100.31 8.34 100.31 8.12ZM112.76 8.11L112.76 8.11L112.76 8.11Q112.76 8.04 112.79 7.99L112.79 7.99L112.79 7.99Q112.83 7.95 112.93 7.90L112.93 7.90L112.93 7.90Q113.04 7.85 113.15 7.82L113.15 7.82L113.15 7.82Q113.26 7.78 113.48 7.71L113.48 7.71L113.48 7.71Q113.69 7.63 113.89 7.55L113.89 7.55L113.89 7.55Q114.04 7.48 114.18 7.42L114.18 7.42L114.18 7.42Q114.31 7.36 114.35 7.34L114.35 7.34L114.35 7.34Q114.39 7.32 114.45 7.31L114.45 7.31L114.45 7.31Q114.51 7.29 114.59 7.29L114.59 7.29L114.59 7.29Q114.80 7.29 114.80 7.56L114.80 7.56L114.80 7.56Q114.80 7.63 114.76 7.87L114.76 7.87L114.76 7.87Q114.72 8.11 114.72 8.23L114.72 8.23L114.72 12.07L114.72 12.07Q114.72 12.49 114.85 12.73L114.85 12.73L114.85 12.73Q114.98 12.96 115.13 13.02L115.13 13.02L115.13 13.02Q115.28 13.08 115.50 13.09L115.50 13.09L115.50 13.09Q115.67 13.10 115.72 13.11L115.72 13.11L115.72 13.11Q115.78 13.12 115.85 13.16L115.85 13.16L115.85 13.16Q115.92 13.20 115.92 13.30L115.92 13.30L115.92 13.30Q115.92 13.54 115.68 13.54L115.68 13.54L115.68 13.54Q115.65 13.54 115.58 13.53L115.58 13.53L115.58 13.53Q115.51 13.52 115.47 13.52L115.47 13.52L115.47 13.52Q115.16 13.52 114.95 13.51L114.95 13.51L114.95 13.51Q114.74 13.50 114.48 13.50L114.48 13.50L114.48 13.50Q114.14 13.50 113.85 13.51L113.85 13.51L113.85 13.51Q113.55 13.52 113.48 13.52L113.48 13.52L113.48 13.52Q112.92 13.52 112.92 13.34L112.92 13.34L112.92 13.34Q112.92 13.15 113.13 13.08L113.13 13.08L113.13 13.08Q113.15 13.08 113.19 13.06L113.19 13.06L113.19 13.06Q113.51 12.95 113.58 12.78L113.58 12.78L113.58 12.78Q113.71 12.50 113.71 10.56L113.71 10.56L113.71 9.32L113.71 9.32Q113.71 8.92 113.61 8.68L113.61 8.68L113.61 8.68Q113.51 8.44 113.43 8.39L113.43 8.39L113.43 8.39Q113.34 8.33 113.14 8.29L113.14 8.29L113.14 8.29Q112.94 8.26 112.90 8.25L112.90 8.25L112.90 8.25Q112.76 8.19 112.76 8.11ZM113.55 5.18L113.55 5.18L113.55 5.18Q113.55 5.01 113.80 4.71L113.80 4.71L113.80 4.71Q114.04 4.41 114.25 4.41L114.25 4.41L114.25 4.41Q114.48 4.41 114.69 4.70L114.69 4.70L114.69 4.70Q114.90 4.98 114.90 5.21L114.90 5.21L114.90 5.21Q114.90 5.43 114.63 5.70L114.63 5.70L114.63 5.70Q114.37 5.98 114.24 5.98L114.24 5.98L114.24 5.98Q113.96 5.98 113.76 5.68L113.76 5.68L113.76 5.68Q113.55 5.39 113.55 5.18ZM123.51 3.74L123.51 3.74L123.51 3.74Q123.51 3.65 123.53 3.61L123.53 3.61L123.53 3.61Q123.55 3.57 123.62 3.54L123.62 3.54L123.62 3.54Q123.69 3.50 123.78 3.48L123.78 3.48L123.78 3.48Q123.87 3.46 124.07 3.39L124.07 3.39L124.07 3.39Q124.26 3.33 124.46 3.25L124.46 3.25L124.46 3.25Q124.57 3.21 124.81 3.09L124.81 3.09L124.81 3.09Q125.05 2.98 125.22 2.92L125.22 2.92L125.22 2.92Q125.40 2.86 125.52 2.86L125.52 2.86L125.52 2.86Q125.69 2.86 125.69 3.12L125.69 3.12L125.69 3.12Q125.69 3.18 125.66 3.45L125.66 3.45L125.66 3.45Q125.64 3.72 125.61 4.21L125.61 4.21L125.61 4.21Q125.58 4.69 125.58 5.25L125.58 5.25L125.58 6.03L125.58 6.03Q125.58 6.69 125.57 7.15L125.57 7.15L125.57 7.15Q125.55 7.60 125.55 7.90L125.55 7.90L125.55 12.07L125.55 12.07Q125.55 12.36 125.60 12.55L125.60 12.55L125.60 12.55Q125.65 12.74 125.92 12.91L125.92 12.91L125.92 12.91Q126.20 13.09 126.69 13.09L126.69 13.09L126.69 13.09Q126.76 13.09 126.81 13.16L126.81 13.16L126.81 13.16Q126.87 13.23 126.87 13.30L126.87 13.30L126.87 13.30Q126.87 13.50 126.43 13.50L126.43 13.50L126.43 13.50Q126.31 13.50 125.78 13.45L125.78 13.45L125.78 13.45Q125.26 13.40 125.02 13.40L125.02 13.40L125.02 13.40Q124.66 13.40 124.33 13.45L124.33 13.45L124.33 13.45Q124.00 13.51 123.89 13.51L123.89 13.51L123.89 13.51Q123.79 13.51 123.72 13.46L123.72 13.46L123.72 13.46Q123.66 13.41 123.66 13.37L123.66 13.37L123.66 13.37Q123.66 13.26 123.72 13.21L123.72 13.21L123.72 13.21Q123.79 13.16 123.93 13.13L123.93 13.13L123.93 13.13Q124.08 13.09 124.14 13.06L124.14 13.06L124.14 13.06Q124.38 12.95 124.45 12.75L124.45 12.75L124.45 12.75Q124.52 12.56 124.52 12.15L124.52 12.15L124.52 12.15Q124.52 12.10 124.51 11.98L124.51 11.98L124.51 11.98Q124.50 11.86 124.50 11.79L124.50 11.79L124.50 10.75L124.50 10.75Q124.50 10.23 124.53 8.00L124.53 8.00L124.53 8.00Q124.56 5.77 124.56 4.80L124.56 4.80L124.56 4.80Q124.56 4.48 124.45 4.22L124.45 4.22L124.45 4.22Q124.35 3.96 124.22 3.91L124.22 3.91L124.22 3.91Q124.10 3.85 123.66 3.85L123.66 3.85L123.66 3.85Q123.51 3.85 123.51 3.74ZM134.41 3.74L134.41 3.74L134.41 3.74Q134.41 3.65 134.44 3.61L134.44 3.61L134.44 3.61Q134.46 3.57 134.53 3.54L134.53 3.54L134.53 3.54Q134.60 3.50 134.69 3.48L134.69 3.48L134.69 3.48Q134.78 3.46 134.97 3.39L134.97 3.39L134.97 3.39Q135.17 3.33 135.37 3.25L135.37 3.25L135.37 3.25Q135.48 3.21 135.72 3.09L135.72 3.09L135.72 3.09Q135.95 2.98 136.13 2.92L136.13 2.92L136.13 2.92Q136.30 2.86 136.43 2.86L136.43 2.86L136.43 2.86Q136.60 2.86 136.60 3.12L136.60 3.12L136.60 3.12Q136.60 3.18 136.57 3.45L136.57 3.45L136.57 3.45Q136.54 3.72 136.51 4.21L136.51 4.21L136.51 4.21Q136.49 4.69 136.49 5.25L136.49 5.25L136.49 6.03L136.49 6.03Q136.49 6.69 136.47 7.15L136.47 7.15L136.47 7.15Q136.46 7.60 136.46 7.90L136.46 7.90L136.46 12.07L136.46 12.07Q136.46 12.36 136.51 12.55L136.51 12.55L136.51 12.55Q136.56 12.74 136.83 12.91L136.83 12.91L136.83 12.91Q137.10 13.09 137.59 13.09L137.59 13.09L137.59 13.09Q137.66 13.09 137.72 13.16L137.72 13.16L137.72 13.16Q137.77 13.23 137.77 13.30L137.77 13.30L137.77 13.30Q137.77 13.50 137.34 13.50L137.34 13.50L137.34 13.50Q137.21 13.50 136.69 13.45L136.69 13.45L136.69 13.45Q136.16 13.40 135.93 13.40L135.93 13.40L135.93 13.40Q135.56 13.40 135.23 13.45L135.23 13.45L135.23 13.45Q134.90 13.51 134.79 13.51L134.79 13.51L134.79 13.51Q134.69 13.51 134.63 13.46L134.63 13.46L134.63 13.46Q134.57 13.41 134.57 13.37L134.57 13.37L134.57 13.37Q134.57 13.26 134.63 13.21L134.63 13.21L134.63 13.21Q134.69 13.16 134.84 13.13L134.84 13.13L134.84 13.13Q134.99 13.09 135.04 13.06L135.04 13.06L135.04 13.06Q135.28 12.95 135.35 12.75L135.35 12.75L135.35 12.75Q135.42 12.56 135.42 12.15L135.42 12.15L135.42 12.15Q135.42 12.10 135.42 11.98L135.42 11.98L135.42 11.98Q135.41 11.86 135.41 11.79L135.41 11.79L135.41 10.75L135.41 10.75Q135.41 10.23 135.44 8.00L135.44 8.00L135.44 8.00Q135.46 5.77 135.46 4.80L135.46 4.80L135.46 4.80Q135.46 4.48 135.36 4.22L135.36 4.22L135.36 4.22Q135.25 3.96 135.13 3.91L135.13 3.91L135.13 3.91Q135.00 3.85 134.57 3.85L134.57 3.85L134.57 3.85Q134.41 3.85 134.41 3.74Z"></path></g></svg>