<svg data-v-fde0c5aa="" xmlns="http://www.w3.org/2000/svg" viewBox="0 0 300 300" class="font"><!----><defs data-v-fde0c5aa=""><!----></defs><rect data-v-fde0c5aa="" fill="#FDF7EC" x="0" y="0" width="300px" height="300px" class="logo-background-square"></rect><defs data-v-fde0c5aa=""><linearGradient data-v-fde0c5aa="" gradientTransform="rotate(25)" id="d92fc508-c1c7-45c9-9177-18f2a03390f4" x1="0%" y1="0%" x2="100%" y2="0%"><stop data-v-fde0c5aa="" offset="0%" stop-color="#E56500" stop-opacity="1"></stop><stop data-v-fde0c5aa="" offset="100%" stop-color="#EBC51D" stop-opacity="1"></stop></linearGradient></defs><g data-v-fde0c5aa="" id="32d36202-1b3a-4d00-bc70-7899190478fa" fill="url(#d92fc508-c1c7-45c9-9177-18f2a03390f4)" transform="matrix(2.496312343768599,0,0,2.496312343768599,39.82525811659326,132.00158850136887)"><path d="M4.62 2.31L0.07 12.60L1.40 12.60L2.65 9.66L6.59 9.66L7.84 12.60L9.17 12.60ZM4.62 5.01L6.12 8.54L3.12 8.54ZM11.41 8.68C11.41 8.20 11.54 7.82 11.80 7.52C12.06 7.22 12.43 7.07 12.91 7.07C13.35 7.07 13.66 7.20 13.85 7.46C14.04 7.72 14.14 8.13 14.14 8.68L14.14 12.60L15.26 12.60L15.26 8.68C15.26 8.20 15.39 7.82 15.65 7.52C15.91 7.22 16.28 7.07 16.76 7.07C17.20 7.07 17.51 7.20 17.70 7.46C17.89 7.72 17.99 8.13 17.99 8.68L17.99 12.60L19.11 12.60L19.11 8.54C19.11 7.71 18.93 7.08 18.58 6.66C18.22 6.23 17.71 6.02 17.04 6.02C16.63 6.02 16.24 6.12 15.89 6.33C15.54 6.53 15.25 6.81 15.04 7.17C14.73 6.40 14.11 6.02 13.19 6.02C12.44 6.02 11.85 6.33 11.41 6.96L11.41 6.16L10.29 6.16L10.29 12.60L11.41 12.60ZM25.34 10.08C25.34 10.55 25.19 10.93 24.89 11.23C24.58 11.54 24.19 11.69 23.70 11.69C22.79 11.69 22.33 11.15 22.33 10.08L22.33 6.16L21.21 6.16L21.21 10.22C21.21 11.03 21.41 11.65 21.80 12.09C22.20 12.52 22.74 12.74 23.42 12.74C24.22 12.74 24.86 12.40 25.34 11.73L25.34 12.60L26.46 12.60L26.46 6.16L25.34 6.16ZM28.85 10.35L27.93 10.88C28.02 11.40 28.32 11.84 28.81 12.20C29.31 12.56 29.85 12.74 30.45 12.74C31.18 12.74 31.75 12.58 32.17 12.26C32.59 11.93 32.80 11.44 32.80 10.78C32.80 10.01 32.21 9.37 31.02 8.88C30.71 8.75 30.46 8.64 30.28 8.55C30.09 8.46 29.91 8.34 29.73 8.18C29.55 8.03 29.46 7.87 29.46 7.71C29.46 7.29 29.78 7.08 30.44 7.08C30.72 7.08 30.99 7.15 31.26 7.28C31.52 7.41 31.72 7.60 31.85 7.85L32.75 7.28C32.62 6.93 32.34 6.63 31.88 6.38C31.42 6.14 30.94 6.02 30.42 6.02C29.87 6.02 29.39 6.18 28.97 6.49C28.55 6.80 28.34 7.21 28.34 7.71C28.34 7.97 28.39 8.19 28.49 8.40C28.59 8.61 28.74 8.78 28.95 8.93C29.15 9.08 29.33 9.20 29.51 9.29C29.69 9.38 29.91 9.48 30.18 9.59C30.43 9.68 30.61 9.76 30.74 9.82C30.86 9.88 31.01 9.97 31.17 10.07C31.33 10.18 31.45 10.30 31.53 10.43C31.60 10.56 31.64 10.71 31.64 10.88C31.64 11.42 31.27 11.69 30.52 11.69C30.12 11.69 29.76 11.56 29.45 11.31C29.14 11.06 28.94 10.74 28.85 10.35ZM38.72 8.71L34.89 8.71C34.94 8.19 35.16 7.78 35.54 7.47C35.92 7.16 36.37 7.00 36.90 7.00C37.45 7.00 37.87 7.15 38.18 7.46C38.49 7.77 38.67 8.19 38.72 8.71ZM34.86 9.66L39.93 9.66C39.94 9.59 39.94 9.47 39.94 9.32C39.94 8.32 39.66 7.51 39.11 6.92C38.55 6.32 37.82 6.02 36.90 6.02C35.96 6.02 35.19 6.33 34.60 6.96C34.01 7.59 33.71 8.40 33.71 9.38C33.71 10.35 34.00 11.15 34.58 11.79C35.16 12.42 35.89 12.74 36.76 12.74C37.54 12.74 38.15 12.60 38.61 12.33C39.07 12.06 39.48 11.65 39.83 11.10L38.92 10.53C38.44 11.30 37.77 11.69 36.90 11.69C36.32 11.69 35.84 11.51 35.48 11.16C35.11 10.80 34.91 10.30 34.86 9.66ZM45.75 2.80L45.75 12.60L48.41 12.60C49.38 12.60 50.18 12.34 50.81 11.83C51.43 11.32 51.74 10.62 51.74 9.73C51.74 8.40 51.02 7.57 49.57 7.25C50.65 6.95 51.18 6.29 51.18 5.25C51.18 4.48 50.91 3.88 50.37 3.45C49.82 3.02 49.07 2.80 48.13 2.80ZM46.94 6.72L46.94 3.92L48.13 3.92C49.37 3.92 49.99 4.39 49.99 5.32C49.99 6.25 49.37 6.72 48.13 6.72ZM46.94 7.84L48.41 7.84C49.07 7.84 49.59 8.00 49.97 8.31C50.36 8.62 50.55 9.07 50.55 9.66C50.55 10.25 50.36 10.70 49.97 11.01C49.59 11.32 49.07 11.48 48.41 11.48L46.94 11.48ZM52.93 9.38C52.93 10.35 53.25 11.15 53.89 11.79C54.52 12.42 55.31 12.74 56.27 12.74C57.22 12.74 58.01 12.42 58.65 11.79C59.28 11.15 59.60 10.35 59.60 9.38C59.60 8.41 59.28 7.61 58.65 6.97C58.01 6.34 57.22 6.02 56.27 6.02C55.31 6.02 54.52 6.34 53.89 6.97C53.25 7.61 52.93 8.41 52.93 9.38ZM54.07 9.38C54.07 8.71 54.28 8.15 54.69 7.72C55.11 7.29 55.63 7.07 56.27 7.07C56.90 7.07 57.43 7.29 57.84 7.72C58.26 8.15 58.46 8.71 58.46 9.38C58.46 10.05 58.26 10.61 57.84 11.04C57.43 11.47 56.90 11.69 56.27 11.69C55.63 11.69 55.11 11.47 54.69 11.04C54.28 10.61 54.07 10.05 54.07 9.38ZM65.27 10.08C65.27 10.55 65.12 10.93 64.81 11.23C64.51 11.54 64.12 11.69 63.63 11.69C62.72 11.69 62.26 11.15 62.26 10.08L62.26 6.16L61.14 6.16L61.14 10.22C61.14 11.03 61.34 11.65 61.73 12.09C62.13 12.52 62.67 12.74 63.35 12.74C64.15 12.74 64.79 12.40 65.27 11.73L65.27 12.60L66.39 12.60L66.39 6.16L65.27 6.16ZM68.99 9.38C68.99 8.71 69.20 8.15 69.62 7.72C70.03 7.29 70.56 7.07 71.19 7.07C71.69 7.07 72.16 7.18 72.58 7.40C73.00 7.62 73.28 7.89 73.43 8.20L73.43 6.85C73.21 6.59 72.89 6.39 72.48 6.24C72.07 6.09 71.64 6.02 71.19 6.02C70.24 6.02 69.44 6.34 68.81 6.97C68.18 7.61 67.86 8.41 67.86 9.38C67.86 10.35 68.18 11.15 68.81 11.79C69.44 12.42 70.24 12.74 71.19 12.74C71.65 12.74 72.08 12.67 72.49 12.52C72.90 12.38 73.22 12.18 73.43 11.91L73.43 10.56C73.28 10.87 73.00 11.14 72.58 11.36C72.16 11.58 71.69 11.69 71.19 11.69C70.56 11.69 70.03 11.47 69.62 11.04C69.20 10.61 68.99 10.05 68.99 9.38ZM76.30 8.68C76.30 8.21 76.45 7.83 76.75 7.52C77.06 7.22 77.45 7.07 77.94 7.07C78.85 7.07 79.31 7.61 79.31 8.68L79.31 12.60L80.43 12.60L80.43 8.54C80.43 7.73 80.23 7.10 79.83 6.67C79.44 6.24 78.90 6.02 78.22 6.02C77.42 6.02 76.78 6.36 76.30 7.03L76.30 1.68L75.18 1.68L75.18 12.60L76.30 12.60ZM86.98 8.71L83.15 8.71C83.20 8.19 83.42 7.78 83.80 7.47C84.17 7.16 84.63 7.00 85.16 7.00C85.70 7.00 86.13 7.15 86.44 7.46C86.74 7.77 86.93 8.19 86.98 8.71ZM83.12 9.66L88.19 9.66C88.20 9.59 88.20 9.47 88.20 9.32C88.20 8.32 87.92 7.51 87.37 6.92C86.81 6.32 86.08 6.02 85.16 6.02C84.22 6.02 83.45 6.33 82.86 6.96C82.27 7.59 81.97 8.40 81.97 9.38C81.97 10.35 82.26 11.15 82.84 11.79C83.42 12.42 84.14 12.74 85.02 12.74C85.80 12.74 86.41 12.60 86.87 12.33C87.33 12.06 87.73 11.65 88.09 11.10L87.18 10.53C86.70 11.30 86.03 11.69 85.16 11.69C84.57 11.69 84.10 11.51 83.73 11.16C83.37 10.80 83.16 10.30 83.12 9.66Z"></path></g><!----><!----></svg>